<svg viewBox="46 36 110 30" fill="none" xmlns="http://www.w3.org/2000/svg">
  <!-- P -->
  <path d="m 0,0 c -0.024,1.276 -0.855,2.221 -2.131,2.335 -0.696,0.063 -1.414,0.036 -2.145,0.031 l 0.002,-4.86 c 0.763,0.002 1.452,-0.024 2.132,0.034 C -0.815,-2.346 0.025,-1.331 0,0 M 2.896,-1.801 C 2.2,-4.115 0.122,-5.261 -2.229,-5.267 l -2.045,-0.006 -0.003,-5.868 -3.113,-10e-4 -0.002,16.288 5.351,-0.001 c 0.773,0 1.476,-0.152 2.18,-0.414 2.612,-1.042 3.519,-3.999 2.757,-6.532" fill="white" transform="matrix(1.3333333,0,0,-1.3333333,61.294133,46.0112)"/>
  <!-- R -->
  <path d="m 0,0 c 0.581,0.914 0.573,2.043 0.01,2.934 -1.004,1.295 -2.607,0.89 -4.087,0.95 l 0.002,-4.818 2.172,0.014 C -1.154,-0.915 -0.474,-0.594 0,0 m 3.569,-8.203 0.023,-1.421 -2.799,-0.002 -3.408,5.899 -1.46,0.011 -0.002,-5.909 -3.113,-10e-4 -0.002,16.289 5.608,-0.002 c 0.774,0 1.48,-0.156 2.181,-0.42 C 1.917,5.699 2.885,4.65 3.319,3.284 4.057,0.767 3.304,-2.079 0.686,-3.219 Z" fill="white" transform="matrix(1.3333333,0,0,-1.3333333,78.310667,48.0332)"/>
  <!-- E -->
  <path d="M 0,0 -5.616,-0.004 V -4.019 H 1.273 L 1.28,-6.791 -8.736,-6.792 -8.735,9.496 1.273,9.497 1.279,6.724 -5.615,6.721 -5.618,2.775 -0.005,2.77 Z" fill="white" transform="matrix(1.3333333,0,0,-1.3333333,98.5108,51.8104)"/>
  <!-- P -->
  <path d="m 0,0 c -0.024,1.276 -0.855,2.221 -2.131,2.335 -0.696,0.063 -1.414,0.036 -2.145,0.031 l 0.002,-4.86 c 0.763,0.002 1.452,-0.024 2.132,0.034 C -0.815,-2.347 0.025,-1.331 0,0 M 2.896,-1.801 C 2.2,-4.115 0.122,-5.261 -2.229,-5.267 l -2.044,-0.006 -0.004,-5.868 -3.113,-10e-4 -0.002,16.288 5.351,-0.001 c 0.773,0 1.476,-0.152 2.18,-0.414 2.612,-1.042 3.519,-3.998 2.757,-6.532" fill="white" transform="matrix(1.3333333,0,0,-1.3333333,113.91693,46.0112)"/>
  <!-- I -->
  <path d="m 0,0 -9.057,-0.001 -10e-4,2.77 2.969,0.006 V 13.51 l -2.968,0.006 v 2.772 h 9.054 V 13.516 L -2.97,13.51 V 2.773 l 2.964,-0.002 z" fill="white" transform="matrix(1.3333333,0,0,-1.3333333,131.97613,60.865333)"/>
  <!-- X -->
  <path d="m 0,0 -2.777,-0.005 -2.304,6.847 -1.414,0.007 -2.346,-6.848 -2.778,-0.002 0.002,1.392 2.498,6.822 -2.493,6.674 -0.004,1.4 2.561,-0.003 2.559,-6.801 1.417,0.005 2.51,6.793 2.561,0.008 0.006,-1.38 -2.499,-6.696 2.485,-6.789 z" fill="white" transform="matrix(1.3333333,0,0,-1.3333333,150.71147,60.863867)"/>
</svg>
